<svg width="24.8239548px" height="25px" viewBox="0 0 24.8239548 25" version="1.1" xmlns="http://www.w3.org/2000/svg"
    xmlns:xlink="http://www.w3.org/1999/xlink">
    <g id="Design" stroke="none" stroke-width="1" fill-rule="evenodd">
        <g id="Homepage" transform="translate(-45, -1121)" fill-rule="nonzero">
            <g id="Group-2" transform="translate(0, 1097)">
                <path
                    d="M56.8604387,24.1875722 C57.1900092,23.9373841 57.6445933,23.9374853 57.9740537,24.1878199 L69.0719055,32.6203235 L69.142923,32.680137 C69.5477074,33.0573434 69.791286,33.5778679 69.8239548,34.1846608 L69.8239548,47.0685731 C69.8196426,48.1339935 68.9620583,48.9967463 67.900203,49 L61.2412877,49 C60.7309509,49 60.3172411,48.5838604 60.3172411,48.0705261 L60.3172411,42.6716671 C60.3172411,41.0549661 59.0162671,39.7448132 57.4119774,39.7448132 C55.8076876,39.7448132 54.5067137,41.0549661 54.5067136,42.6716671 L54.5067136,48.067441 C54.5067136,48.5807753 54.0930039,48.9969149 53.5826671,48.9969149 L46.9199058,48.9969106 C45.8606729,48.9936535 45.0032353,48.1301663 45,47.0617107 L45.0014062,34.1334027 C45.0318955,33.5781332 45.2759586,33.0565732 45.7523754,32.6200757 L56.8604387,24.1875722 Z M57.4164133,26.0941047 L46.9360768,34.0446845 C46.8828037,34.0941915 46.8507022,34.1627921 46.8480888,34.1846608 L46.8480888,47.058876 C46.8480888,47.1027479 46.8830688,47.1378408 46.9227307,47.1379671 L52.6584977,47.1373936 L52.6586206,42.6716671 C52.6586206,40.0965522 54.6788034,37.9960875 57.2110286,37.8900644 L57.4119774,37.8858654 C60.0374269,37.8858654 62.1653342,40.028786 62.1653342,42.6716671 L62.1650884,47.1401821 L67.8973844,47.1410565 C67.9296472,47.1410565 67.9575627,47.1209634 67.9695764,47.0938328 L67.9758617,47.0647958 L67.9773386,34.2371912 C67.9731788,34.1632735 67.9407351,34.0939416 67.8869469,34.043818 L67.9034173,34.0624844 L57.4164133,26.0941047 Z"
                    id="Path"></path>
            </g>
        </g>
    </g>
</svg>